<svg width="12" height="14" viewBox="0 0 12 14" fill="none" xmlns="http://www.w3.org/2000/svg">
<path d="M11.4348 4.54052C10.7832 1.67344 8.2823 0.382629 6.08545 0.382629C6.08545 0.382629 6.08545 0.382629 6.07924 0.382629C3.88859 0.382629 1.38145 1.66723 0.729839 4.53431C0.00375974 7.73651 1.96479 10.4484 3.73965 12.155C4.39747 12.788 5.24146 13.1045 6.08545 13.1045C6.92943 13.1045 7.77342 12.788 8.42503 12.155C10.1999 10.4484 12.1609 7.74271 11.4348 4.54052ZM6.08545 7.64962C5.00564 7.64962 4.13062 6.77461 4.13062 5.6948C4.13062 4.61499 5.00564 3.73997 6.08545 3.73997C7.16526 3.73997 8.04027 4.61499 8.04027 5.6948C8.04027 6.77461 7.16526 7.64962 6.08545 7.64962Z" fill="#6D747D"/>
</svg>
