<svg width="64" height="50" viewBox="0 0 64 50" fill="none" xmlns="http://www.w3.org/2000/svg">
<path d="M35.6725 20.547C35.6805 21.0274 35.5927 21.5046 35.4144 21.9507C35.2361 22.3968 34.9708 22.803 34.6339 23.1455C34.297 23.4881 33.8953 23.7601 33.4522 23.9458C33.0091 24.1315 32.5334 24.2272 32.053 24.2272C31.5725 24.2272 31.0969 24.1315 30.6538 23.9458C30.2107 23.7601 29.809 23.4881 29.4721 23.1455C29.1352 22.803 28.8698 22.3968 28.6915 21.9507C28.5132 21.5046 28.4255 21.0274 28.4335 20.547C28.4493 19.5975 28.8375 18.6922 29.5146 18.0263C30.1917 17.3604 31.1033 16.9872 32.053 16.9872C33.0026 16.9872 33.9143 17.3604 34.5913 18.0263C35.2684 18.6922 35.6567 19.5975 35.6725 20.547ZM18.3455 12.438H11.2425C7.25548 12.438 5.90548 15.281 3.90248 19.421L0.228476 26.992C0.0992493 27.2576 0.0236412 27.546 0.00597629 27.8408C-0.0116886 28.1356 0.0289363 28.431 0.125528 28.7101C0.222119 28.9892 0.372781 29.2465 0.568899 29.4673C0.765016 29.6881 1.00274 29.8681 1.26848 29.997C1.80613 30.2585 2.42549 30.2963 2.99095 30.1021C3.55641 29.908 4.02189 29.4976 4.28548 28.961L9.36648 19.148V46.909C9.36648 47.5572 9.62397 48.1788 10.0823 48.6372C10.5406 49.0955 11.1623 49.353 11.8105 49.353C12.4587 49.353 13.0803 49.0955 13.5386 48.6372C13.997 48.1788 14.2545 47.5572 14.2545 46.909V32.68H15.3485V46.928C15.3485 47.5762 15.606 48.1978 16.0643 48.6562C16.5226 49.1145 17.1443 49.372 17.7925 49.372C18.4407 49.372 19.0623 49.1145 19.5206 48.6562C19.979 48.1978 20.2365 47.5762 20.2365 46.928V19.148L24.4525 27.589C25.2965 25.964 26.2225 24.564 27.7955 24.004L25.6855 19.421C23.6835 15.281 22.3335 12.438 18.3455 12.438ZM14.7925 11.503C16.2349 11.503 17.6182 10.93 18.6381 9.91011C19.658 8.89019 20.231 7.50689 20.231 6.06451C20.231 4.62213 19.658 3.23882 18.6381 2.21891C17.6182 1.19899 16.2349 0.626007 14.7925 0.626007C13.3501 0.626007 11.9668 1.19899 10.9469 2.21891C9.92696 3.23882 9.35398 4.62213 9.35398 6.06451C9.35398 7.50689 9.92696 8.89019 10.9469 9.91011C11.9668 10.93 13.3501 11.503 14.7925 11.503ZM63.7715 26.993L60.0975 19.422C58.0955 15.281 56.7455 12.439 52.7575 12.439H45.6545C41.6675 12.439 40.3165 15.282 38.3145 19.422L36.0815 24.009C37.6785 24.537 38.6165 25.652 39.4635 27.262L43.7765 19.149L41.3075 31.685L42.4445 33.959C43.0495 35.199 42.3375 37.596 39.8575 37.596H43.7765V46.909C43.7765 47.23 43.8397 47.5478 43.9625 47.8443C44.0853 48.1408 44.2654 48.4102 44.4923 48.6372C44.7193 48.8641 44.9887 49.0441 45.2852 49.167C45.5817 49.2898 45.8995 49.353 46.2205 49.353C46.5414 49.353 46.8592 49.2898 47.1558 49.167C47.4523 49.0441 47.7217 48.8641 47.9486 48.6372C48.1756 48.4102 48.3556 48.1408 48.4784 47.8443C48.6013 47.5478 48.6645 47.23 48.6645 46.909V37.596H49.7595V46.928C49.7595 47.5762 50.017 48.1978 50.4753 48.6562C50.9336 49.1145 51.5553 49.372 52.2035 49.372C52.8517 49.372 53.4733 49.1145 53.9316 48.6562C54.39 48.1978 54.6475 47.5762 54.6475 46.928V37.596H58.4555L54.6475 19.149L59.7135 28.962C59.9771 29.4986 60.4425 29.909 61.008 30.1031C61.5735 30.2973 62.1928 30.2595 62.7305 29.998C62.9966 29.8695 63.2347 29.6898 63.4311 29.469C63.6276 29.2483 63.7785 28.991 63.8752 28.7118C63.9719 28.4325 64.0126 28.137 63.9948 27.842C63.977 27.5471 63.9011 27.2586 63.7715 26.993ZM49.2055 11.503C50.6479 11.503 52.0312 10.93 53.0511 9.91011C54.071 8.89019 54.644 7.50689 54.644 6.06451C54.644 4.62213 54.071 3.23882 53.0511 2.21891C52.0312 1.19899 50.6479 0.626007 49.2055 0.626007C47.7631 0.626007 46.3798 1.19899 45.3599 2.21891C44.34 3.23882 43.767 4.62213 43.767 6.06451C43.767 7.50689 44.34 8.89019 45.3599 9.91011C46.3798 10.93 47.7631 11.503 49.2055 11.503ZM39.3035 29.437C37.9715 26.681 37.0735 24.79 34.4185 24.79H29.6905C27.0365 24.79 26.1375 26.682 24.8045 29.437L22.3585 34.477C22.2716 34.6536 22.2205 34.8456 22.2083 35.0421C22.1961 35.2385 22.223 35.4354 22.2873 35.6213C22.3517 35.8073 22.4522 35.9787 22.5832 36.1256C22.7142 36.2724 22.873 36.3919 23.0505 36.477C23.8075 36.835 24.7995 36.32 25.0585 35.788L28.4405 29.256L26.3155 40.217H28.4405V47.734C28.4351 47.951 28.4732 48.1669 28.5525 48.3689C28.6318 48.571 28.7508 48.7551 28.9023 48.9105C29.0539 49.0658 29.235 49.1893 29.435 49.2736C29.6351 49.3579 29.8499 49.4013 30.067 49.4013C30.284 49.4013 30.4989 49.3579 30.6989 49.2736C30.8989 49.1893 31.08 49.0658 31.2316 48.9105C31.3832 48.7551 31.5021 48.571 31.5814 48.3689C31.6608 48.1669 31.6989 47.951 31.6935 47.734V40.217H32.4225V47.746C32.4373 48.1676 32.6152 48.5671 32.9187 48.8601C33.2222 49.1532 33.6276 49.317 34.0495 49.317C34.4714 49.317 34.8768 49.1532 35.1803 48.8601C35.4838 48.5671 35.6617 48.1676 35.6765 47.746V40.217H37.9265L35.6765 29.256L39.0485 35.788C39.4115 36.479 40.2295 36.878 41.0565 36.477C41.2337 36.3917 41.3924 36.2721 41.5232 36.1252C41.654 35.9783 41.7545 35.807 41.8188 35.6211C41.8832 35.4352 41.9101 35.2384 41.898 35.042C41.8859 34.8457 41.8351 34.6536 41.7485 34.477L39.3035 29.437Z" fill="#5181C4"/>
</svg>
