<svg width="58" height="52" viewBox="0 0 58 52" fill="none" xmlns="http://www.w3.org/2000/svg">
<path d="M1.26043 31.13C1.26043 29.3928 1.95052 27.7268 3.17888 26.4984C4.40724 25.2701 6.07326 24.58 7.81043 24.58C9.5476 24.58 11.2136 25.2701 12.442 26.4984C13.6703 27.7268 14.3604 29.3928 14.3604 31.13C14.3591 31.3974 14.3424 31.6645 14.3104 31.93C14.2455 32.4695 14.1076 32.9976 13.9004 33.5C13.3496 34.9247 12.3176 36.1116 10.9832 36.855C9.64889 37.5983 8.09644 37.8512 6.59517 37.5697C5.0939 37.2882 3.73851 36.4901 2.76409 35.3139C1.78967 34.1376 1.25769 32.6574 1.26043 31.13ZM10.6804 40.68H4.94043C3.81326 40.68 2.73226 41.1278 1.93523 41.9248C1.1382 42.7218 0.69043 43.8028 0.69043 44.93V51.47H14.9304V44.93C14.9304 43.8028 14.4827 42.7218 13.6856 41.9248C12.8886 41.1278 11.8076 40.68 10.6804 40.68ZM16.6804 40.89C17.3257 41.8433 17.7337 42.937 17.8704 44.08L17.9304 44.02L26.2304 34.53H22.2304L16.6804 40.89ZM57.3104 33C57.3104 33.3978 57.1524 33.7794 56.8711 34.0607C56.5898 34.342 56.2083 34.5 55.8104 34.5H26.2404L28.8704 31.5L31.9404 28C32.2056 27.7003 32.3409 27.3075 32.3166 26.9081C32.2922 26.5086 32.1101 26.1352 31.8104 25.87C31.5107 25.6048 31.118 25.4695 30.7185 25.4939C30.3191 25.5182 29.9456 25.7003 29.6804 26L24.8804 31.49L22.2504 34.49H16.7304C17.1001 33.5307 17.3096 32.5172 17.3504 31.49V31.09C17.3557 28.8248 16.5531 26.632 15.0868 24.9054C13.6205 23.1788 11.5866 22.0317 9.35043 21.67V3.53H6.81043C6.41261 3.53 6.03107 3.37196 5.74977 3.09066C5.46847 2.80935 5.31043 2.42782 5.31043 2.03C5.31043 1.63217 5.46847 1.25064 5.74977 0.969338C6.03107 0.688034 6.41261 0.529999 6.81043 0.529999H55.8104C56.2083 0.529999 56.5898 0.688034 56.8711 0.969338C57.1524 1.25064 57.3104 1.63217 57.3104 2.03C57.3104 2.42782 57.1524 2.80935 56.8711 3.09066C56.5898 3.37196 56.2083 3.53 55.8104 3.53H53.3104V31.53H55.8104C56.2031 31.5299 56.5802 31.6838 56.8606 31.9587C57.1411 32.2335 57.3026 32.6074 57.3104 33ZM20.3104 11C20.3104 11.3978 20.4685 11.7794 20.7498 12.0607C21.0311 12.342 21.4126 12.5 21.8104 12.5H32.8104C33.2083 12.5 33.5898 12.342 33.8711 12.0607C34.1524 11.7794 34.3104 11.3978 34.3104 11C34.3104 10.6022 34.1524 10.2206 33.8711 9.93934C33.5898 9.65803 33.2083 9.5 32.8104 9.5H21.8104C21.4126 9.5 21.0311 9.65803 20.7498 9.93934C20.4685 10.2206 20.3104 10.6022 20.3104 11ZM41.3104 19C41.3104 18.6022 41.1524 18.2206 40.8711 17.9393C40.5898 17.658 40.2083 17.5 39.8104 17.5H21.8104C21.4126 17.5 21.0311 17.658 20.7498 17.9393C20.4685 18.2206 20.3104 18.6022 20.3104 19C20.3104 19.3978 20.4685 19.7794 20.7498 20.0607C21.0311 20.342 21.4126 20.5 21.8104 20.5H39.8104C40.2083 20.5 40.5898 20.342 40.8711 20.0607C41.1524 19.7794 41.3104 19.3978 41.3104 19Z" fill="#5181C4"/>
</svg>
