<svg width="24" height="17" viewBox="0 0 24 17" fill="none" xmlns="http://www.w3.org/2000/svg">
<path d="M23.0896 3.89128C23.0896 3.89128 22.8652 2.30755 22.1743 1.61214C21.2995 0.696896 20.3214 0.692409 19.8728 0.638571C16.6604 0.405273 11.8374 0.405273 11.8374 0.405273H11.8285C11.8285 0.405273 7.00549 0.405273 3.79316 0.638571C3.34451 0.692409 2.36646 0.696896 1.49159 1.61214C0.80067 2.30755 0.580832 3.89128 0.580832 3.89128C0.580832 3.89128 0.347534 5.75318 0.347534 7.61058V9.35134C0.347534 11.2088 0.576345 13.0706 0.576345 13.0706C0.576345 13.0706 0.80067 14.6544 1.4871 15.3498C2.36197 16.265 3.51051 16.2336 4.02197 16.3323C5.86144 16.5073 11.833 16.5611 11.833 16.5611C11.833 16.5611 16.6604 16.5522 19.8728 16.3234C20.3214 16.2695 21.2995 16.265 22.1743 15.3498C22.8652 14.6544 23.0896 13.0706 23.0896 13.0706C23.0896 13.0706 23.3184 11.2132 23.3184 9.35134V7.61058C23.3184 5.75318 23.0896 3.89128 23.0896 3.89128ZM9.45961 11.4645V5.00842L15.6644 8.24767L9.45961 11.4645Z" fill="#5181C4"/>
</svg>
