<svg xmlns="http://www.w3.org/2000/svg" width="44.359" height="44.358" viewBox="0 0 44.359 44.358">
  <g id="Group_16999" data-name="Group 16999" transform="translate(0)">
    <path id="Path_30898" data-name="Path 30898" d="M689.906,437.21a22.179,22.179,0,0,1-28.546,33.95l15.021-15.021c-1.8.006-5.157.008-5.389-.059a.946.946,0,0,1-.626-.739v-.217a.964.964,0,0,1,.609-.724.842.842,0,0,1,.154-.018h8.82c.643,0,1.189.583.006,1.794-.118.122-.215.219-.333.341s-.246.218-.365.34l-.479.5,3.938,3.937,7.189-24.078Z" transform="translate(-653.33 -431.901)" fill="#05f" fill-rule="evenodd"/>
    <path id="Path_30899" data-name="Path 30899" d="M22.18,0A22.085,22.085,0,0,1,36.329,5.1L21.308,20.121c1.8-.006,5.157-.008,5.39.059a.947.947,0,0,1,.626.739v.217a.965.965,0,0,1-.609.724.832.832,0,0,1-.155.018H17.74c-.643,0-1.19-.583-.007-1.793.119-.123.216-.219.334-.341s.246-.218.364-.34l.479-.5-3.937-3.937L7.783,39.05A22.178,22.178,0,0,1,22.18,0Z" fill="#122270" fill-rule="evenodd"/>
  </g>
</svg>
