<svg width="24" height="24" viewBox="0 0 24 24" fill="none" xmlns="http://www.w3.org/2000/svg">
<path d="M16.7502 3.56V2C16.7502 1.59 16.4102 1.25 16.0002 1.25C15.5902 1.25 15.2502 1.59 15.2502 2V3.5H8.75023V2C8.75023 1.59 8.41023 1.25 8.00023 1.25C7.59023 1.25 7.25023 1.59 7.25023 2V3.56C4.55023 3.81 3.24023 5.42 3.04023 7.81C3.02023 8.1 3.26023 8.34 3.54023 8.34H20.4602C20.7502 8.34 20.9902 8.09 20.9602 7.81C20.7602 5.42 19.4502 3.81 16.7502 3.56Z" fill="#D7DADF"/>
<path d="M20 9.84009H4C3.45 9.84009 3 10.2901 3 10.8401V17.0001C3 20.0001 4.5 22.0001 8 22.0001H16C19.5 22.0001 21 20.0001 21 17.0001V10.8401C21 10.2901 20.55 9.84009 20 9.84009ZM9.21 18.2101C9.11 18.3001 9 18.3701 8.88 18.4201C8.76 18.4701 8.63 18.5001 8.5 18.5001C8.37 18.5001 8.24 18.4701 8.12 18.4201C8 18.3701 7.89 18.3001 7.79 18.2101C7.61 18.0201 7.5 17.7601 7.5 17.5001C7.5 17.2401 7.61 16.9801 7.79 16.7901C7.89 16.7001 8 16.6301 8.12 16.5801C8.36 16.4801 8.64 16.4801 8.88 16.5801C9 16.6301 9.11 16.7001 9.21 16.7901C9.39 16.9801 9.5 17.2401 9.5 17.5001C9.5 17.7601 9.39 18.0201 9.21 18.2101ZM9.42 14.3801C9.37 14.5001 9.3 14.6101 9.21 14.7101C9.11 14.8001 9 14.8701 8.88 14.9201C8.76 14.9701 8.63 15.0001 8.5 15.0001C8.37 15.0001 8.24 14.9701 8.12 14.9201C8 14.8701 7.89 14.8001 7.79 14.7101C7.7 14.6101 7.63 14.5001 7.58 14.3801C7.53 14.2601 7.5 14.1301 7.5 14.0001C7.5 13.8701 7.53 13.7401 7.58 13.6201C7.63 13.5001 7.7 13.3901 7.79 13.2901C7.89 13.2001 8 13.1301 8.12 13.0801C8.36 12.9801 8.64 12.9801 8.88 13.0801C9 13.1301 9.11 13.2001 9.21 13.2901C9.3 13.3901 9.37 13.5001 9.42 13.6201C9.47 13.7401 9.5 13.8701 9.5 14.0001C9.5 14.1301 9.47 14.2601 9.42 14.3801ZM12.71 14.7101C12.61 14.8001 12.5 14.8701 12.38 14.9201C12.26 14.9701 12.13 15.0001 12 15.0001C11.87 15.0001 11.74 14.9701 11.62 14.9201C11.5 14.8701 11.39 14.8001 11.29 14.7101C11.11 14.5201 11 14.2601 11 14.0001C11 13.7401 11.11 13.4801 11.29 13.2901C11.39 13.2001 11.5 13.1301 11.62 13.0801C11.86 12.9701 12.14 12.9701 12.38 13.0801C12.5 13.1301 12.61 13.2001 12.71 13.2901C12.89 13.4801 13 13.7401 13 14.0001C13 14.2601 12.89 14.5201 12.71 14.7101Z" fill="#D7DADF"/>
</svg>
