<svg width="24" height="24" viewBox="0 0 24 24" fill="none" xmlns="http://www.w3.org/2000/svg">
<path d="M16.8 2H14.2C11 2 9 4 9 7.2V11.25H15.25C15.66 11.25 16 11.59 16 12C16 12.41 15.66 12.75 15.25 12.75H9V16.8C9 20 11 22 14.2 22H16.79C19.99 22 21.99 20 21.99 16.8V7.2C22 4 20 2 16.8 2Z" fill="#D92D20"/>
<path d="M4.55945 11.2501L6.62945 9.18009C6.77945 9.03009 6.84945 8.84009 6.84945 8.65009C6.84945 8.46009 6.77945 8.26009 6.62945 8.12009C6.33945 7.83009 5.85945 7.83009 5.56945 8.12009L2.21945 11.4701C1.92945 11.7601 1.92945 12.2401 2.21945 12.5301L5.56945 15.8801C5.85945 16.1701 6.33945 16.1701 6.62945 15.8801C6.91945 15.5901 6.91945 15.1101 6.62945 14.8201L4.55945 12.7501H8.99945V11.2501H4.55945Z" fill="#D92D20"/>
</svg>
