<svg width="24" height="24" viewBox="0 0 24 24" fill="none" xmlns="http://www.w3.org/2000/svg">
<path d="M18.4704 16.83L18.8604 19.99C18.9604 20.82 18.0704 21.4 17.3604 20.97L13.9004 18.91C13.6604 18.77 13.6004 18.47 13.7304 18.23C14.2304 17.31 14.5004 16.27 14.5004 15.23C14.5004 11.57 11.3604 8.59 7.50038 8.59C6.71038 8.59 5.94038 8.71 5.22038 8.95C4.85038 9.07 4.49038 8.73 4.58038 8.35C5.49038 4.71 8.99038 2 13.1704 2C18.0504 2 22.0004 5.69 22.0004 10.24C22.0004 12.94 20.6104 15.33 18.4704 16.83Z" fill="#D7DADF"/>
<path d="M13 15.2301C13 16.4201 12.56 17.5201 11.82 18.3901C10.83 19.5901 9.26 20.3601 7.5 20.3601L4.89 21.9101C4.45 22.1801 3.89 21.8101 3.95 21.3001L4.2 19.3301C2.86 18.4001 2 16.9101 2 15.2301C2 13.4701 2.94 11.9201 4.38 11.0001C5.27 10.4201 6.34 10.0901 7.5 10.0901C10.54 10.0901 13 12.3901 13 15.2301Z" fill="#D7DADF"/>
</svg>
