<svg width="24" height="24" viewBox="0 0 24 24" fill="none" xmlns="http://www.w3.org/2000/svg">
<path d="M21.4499 13.6399V14.6399C21.4499 14.9099 21.2399 15.1299 20.9599 15.1399H19.4999C18.9699 15.1399 18.4899 14.7499 18.4499 14.2299C18.4199 13.9199 18.5399 13.6299 18.7399 13.4299C18.9199 13.2399 19.1699 13.1399 19.4399 13.1399H20.9499C21.2399 13.1499 21.4499 13.3699 21.4499 13.6399Z" fill="#D7DADF"/>
<path d="M17.9892 12.6899C17.4892 13.1799 17.2492 13.9099 17.4492 14.6699C17.7092 15.5999 18.6192 16.1899 19.5792 16.1899H20.4492C20.9992 16.1899 21.4492 16.6399 21.4492 17.1899V17.3799C21.4492 19.4499 19.7592 21.1399 17.6892 21.1399H6.20922C4.13922 21.1399 2.44922 19.4499 2.44922 17.3799V10.6499C2.44922 9.41989 3.03922 8.32989 3.94922 7.64989C4.57922 7.16989 5.35922 6.88989 6.20922 6.88989H17.6892C19.7592 6.88989 21.4492 8.57989 21.4492 10.6499V11.0899C21.4492 11.6399 20.9992 12.0899 20.4492 12.0899H19.4292C18.8692 12.0899 18.3592 12.3099 17.9892 12.6899Z" fill="#D7DADF"/>
<path d="M16.1991 4.82C16.4691 5.09 16.2391 5.51 15.8591 5.51L8.17908 5.5C7.73908 5.5 7.50908 4.96 7.82908 4.65L9.44908 3.02C10.8191 1.66 13.0391 1.66 14.4091 3.02L16.1591 4.79C16.1691 4.8 16.1891 4.81 16.1991 4.82Z" fill="#D7DADF"/>
</svg>
